<svg width="653" height="653" viewBox="0 0 653 653" fill="none" xmlns="http://www.w3.org/2000/svg">
<circle cx="326.5" cy="326.5" r="326.5" fill="white"/>
<path d="M120 176.5C120 120.995 164.995 76 220.5 76H226.5C282.005 76 327 120.995 327 176.5V326H120V176.5Z" fill="#151512"/>
<path d="M327 475.5C327 531.005 371.995 576 427.5 576H433.5C489.005 576 534 531.005 534 475.5V326H327V475.5Z" fill="#151512"/>
<path d="M493.5 111.5V231C493.5 249.5 488.25 263.75 477.75 273.75C467.417 283.75 453.417 288.75 435.75 288.75C417.25 288.75 402.417 283.5 391.25 273C380.083 262.5 374.5 247.583 374.5 228.25H417C417 235.583 418.5 241.167 421.5 245C424.5 248.667 428.833 250.5 434.5 250.5C439.667 250.5 443.667 248.833 446.5 245.5C449.333 242.167 450.75 237.333 450.75 231V111.5H493.5Z" fill="#EB5E28"/>
<path d="M289.75 361.5V395.75H218.25V432.75H271.75V466H218.25V537H175.5V361.5H289.75Z" fill="#151512"/>
</svg>
