<svg width="414" height="500" viewBox="0 0 414 500" fill="none" xmlns="http://www.w3.org/2000/svg">
<path d="M0 100.5C0 44.9954 44.9954 0 100.5 0H106.5C162.005 0 207 44.9954 207 100.5V250H0V100.5Z" fill="#F6F4F1"/>
<path d="M207 399.5C207 455.005 251.995 500 307.5 500H313.5C369.005 500 414 455.005 414 399.5V250H207V399.5Z" fill="#F6F4F1"/>
<path d="M373.5 35.5V155C373.5 173.5 368.25 187.75 357.75 197.75C347.417 207.75 333.417 212.75 315.75 212.75C297.25 212.75 282.417 207.5 271.25 197C260.083 186.5 254.5 171.583 254.5 152.25H297C297 159.583 298.5 165.167 301.5 169C304.5 172.667 308.833 174.5 314.5 174.5C319.667 174.5 323.667 172.833 326.5 169.5C329.333 166.167 330.75 161.333 330.75 155V35.5H373.5Z" fill="#EB5E28"/>
<path d="M169.75 285.5V319.75H98.25V356.75H151.75V390H98.25V461H55.5V285.5H169.75Z" fill="#F6F4F1"/>
</svg>
